<?xml version="1.0" standalone="no"?>
<!DOCTYPE svg PUBLIC "-//W3C//DTD SVG 20010904//EN"
 "http://www.w3.org/TR/2001/REC-SVG-20010904/DTD/svg10.dtd">
<svg version="1.0" xmlns="http://www.w3.org/2000/svg"
 width="116.000000pt" height="116.000000pt" viewBox="0 0 116.000000 116.000000"
 preserveAspectRatio="xMidYMid meet">
<metadata>
Created by potrace 1.11, written by Peter Selinger 2001-2013
</metadata>
<g transform="translate(0.000000,116.000000) scale(0.100000,-0.100000)"
fill="#000000" stroke="none">
<path d="M603 1073 l-481 -3 -6 -38 c-21 -128 -115 -936 -110 -941 3 -3 234
-6 512 -6 l507 0 66 490 c36 270 64 493 62 498 -2 4 -19 6 -36 5 -18 -2 -249
-4 -514 -5z m-111 -133 c21 -32 43 -80 49 -106 11 -43 11 -48 -10 -63 -19 -15
-21 -21 -11 -45 9 -24 13 -26 25 -16 20 17 22 14 38 -56 13 -56 13 -70 -9
-190 -24 -126 -25 -131 -83 -214 l-59 -85 -176 -3 c-157 -2 -176 -1 -176 14 0
20 99 770 106 802 4 21 8 22 137 22 l132 0 37 -60z m585 38 c-3 -13 -31 -204
-63 -426 l-58 -402 -99 0 -99 0 42 48 c31 34 54 78 86 162 40 105 44 123 44
208 0 72 3 92 14 92 8 0 16 15 19 38 3 20 9 58 12 83 l7 46 -36 7 c-20 4 -45
5 -54 2 -13 -4 -25 6 -44 39 -23 38 -40 51 -103 80 -41 18 -75 36 -75 39 0 3
93 6 206 6 l206 0 -5 -22z m-481 -26 c-16 -16 -18 -16 -32 3 -14 18 -13 20 8
26 33 8 46 -7 24 -29z m192 -110 l24 -31 -39 -6 c-21 -3 -49 -12 -63 -19 -14
-8 -39 -12 -56 -9 -27 4 -32 10 -41 49 -10 43 -9 46 20 68 l30 24 50 -23 c28
-12 62 -36 75 -53z m-105 -200 c8 -40 10 -43 34 -37 14 3 38 9 54 12 21 4 31
14 40 40 l11 35 18 -30 c12 -19 19 -54 21 -98 3 -60 -2 -83 -36 -174 -32 -87
-49 -116 -98 -172 l-60 -68 -78 0 c-44 0 -79 2 -79 5 0 3 24 39 52 81 52 73
53 78 78 218 22 124 24 150 14 190 -11 42 -10 47 4 44 10 -2 20 -19 25 -46z"/>
<path d="M242 858 l3 -33 125 0 125 0 3 33 3 32 -131 0 -131 0 3 -32z"/>
<path d="M350 525 l0 -36 93 3 92 3 3 33 3 32 -95 0 -96 0 0 -35z"/>
<path d="M250 405 l0 -35 136 0 135 0 -3 33 -3 32 -132 3 -133 3 0 -36z"/>
<path d="M623 283 c-13 -32 -27 -61 -29 -65 -3 -4 9 -14 26 -23 l31 -16 30 67
c17 36 29 67 27 69 -7 6 -47 25 -53 25 -3 0 -18 -26 -32 -57z"/>
</g>
</svg>
